<?xml version="1.0" encoding="utf-8"?><svg xmlns="http://www.w3.org/2000/svg" xmlns:xlink="http://www.w3.org/1999/xlink"><symbol viewBox="0 0 512 512" id="shell" xmlns="http://www.w3.org/2000/svg"><path d="M94.433 109.825c-86.494 0-159.884 164.418 81.428 336.186l48.582-15.48-130.01-320.706zm323.134 0c86.494 0 159.884 164.418-81.428 336.186l-48.582-15.48 130.01-320.706z" fill="#ff98c5"/><path d="M184.948 48.524c-84.14 0-170.487 85.14 3.315 377.204l36.18 4.803 26.383-59.721-65.878-322.286zm142.104 0c84.14 0 170.487 85.14-3.315 377.204l-36.18 4.803-26.383-59.721 65.878-322.286z" fill="#937fe6"/><path d="M287.557 430.531C369.477 87.141 347.991 7.5 256 7.5s-113.476 79.641-31.557 423.031h63.114z" fill="#ff98c5"/><path d="M317.763 421.525c-13.16-7.768-32.733-13.636-61.833-13.636-28.376 0-47.692 5.579-60.837 13.058-24.836 14.13-26.933 45.359-4.271 62.122 14.741 10.903 36.405 21.431 65.108 21.431 29.1 0 50.966-10.821 65.716-21.884 21.897-16.422 19.988-47.001-3.883-61.091z" fill="#b6a4ff"/><path d="M146.193 203.22a7.5 7.5 0 0 0 7.5-7.5v-19.855a7.5 7.5 0 0 0-15 0v19.855a7.5 7.5 0 0 0 7.5 7.5zm219.415 0a7.5 7.5 0 0 0 7.5-7.5v-19.855a7.5 7.5 0 0 0-15 0v19.855a7.5 7.5 0 0 0 7.5 7.5zm-109.707 10.598c12.717 0 24.644-5.301 32.724-14.543a7.501 7.501 0 0 0-11.293-9.873c-5.231 5.983-13.042 9.416-21.431 9.416-8.389 0-16.2-3.432-21.431-9.416a7.5 7.5 0 1 0-11.294 9.872c8.08 9.243 20.008 14.544 32.725 14.544z"/><path d="M422.846 102.532c-1.842-4.662-3.952-9.112-6.35-13.329-16.699-29.37-47.39-46.714-84.685-48.081-2.571-5.209-5.484-9.866-8.751-13.986C308.379 8.623 287.061 0 255.972 0s-52.407 8.623-67.088 27.136c-3.267 4.119-6.18 8.775-8.75 13.983-34.835 1.236-63.425 16.001-80.858 41.912-4.012 5.963-7.382 12.479-10.148 19.495-16.246 1.117-31.826 7.365-45.344 18.272-15.099 12.183-26.507 29.348-32.991 49.639-11.823 36.998-6.23 81.807 15.75 126.172 26.097 52.681 73.602 104.078 141.2 152.821-.044.477-.104.95-.132 1.431-.888 14.844 5.936 28.782 18.722 38.239 20.255 14.981 44.312 22.9 69.568 22.9 25.539 0 49.819-8.086 70.216-23.384 12.388-9.291 19.031-22.981 18.227-37.56-.03-.545-.091-1.083-.142-1.623 110.199-79.469 146.892-151.906 158.206-198.893a7.5 7.5 0 0 0-5.536-9.047 7.498 7.498 0 0 0-9.047 5.536c-10.573 43.909-44.946 111.573-148.048 187.084a44.288 44.288 0 0 0-6.622-9.617c20.765-35.211 40.132-71.334 56.758-108.695 17.792-39.982 32.991-81.833 39.415-125.29l.029-.194c3.975-27.416 3.448-51.527-1.568-72.128 14.207 2.406 27.631 9.778 38.589 21.348 18.292 19.315 27.412 47.443 25.682 79.205a7.499 7.499 0 0 0 7.081 7.896c4.133.229 7.671-2.945 7.896-7.081 1.957-35.917-8.615-67.998-29.768-90.334-15.105-15.95-34.261-25.288-54.423-26.691zm-19.389-5.915c2.72 4.785 5.024 9.932 6.927 15.423.022.07.035.142.059.212 5.662 16.555 8.669 39.438 4.781 70.75l-.04.338c-.033.265-.073.537-.107.803-1.052 8.084-2.525 16.507-4.433 25.271-9.991 45.904-31.687 100.142-64.663 161.749-5.001 9.343-21.508 38.489-24.621 43.794.136-.391-7.618-3.936-8.452-4.306a101.221 101.221 0 0 0-11.955-4.414c.162-.698 16.867-73.385 23.499-109.323a.566.566 0 0 1 .008-.04c23.334-120.518 27.386-195.811 13.507-240.319 20.447 1.993 48.687 10.511 65.49 40.062zm-202.82-60.161C212.245 21.818 229.828 15 255.972 15s43.728 6.818 55.335 21.457c3.385 4.269 6.332 9.294 8.849 15.092 20.993 48.46 11.501 153.24-30.857 338.454-.887 3.88-2.781 12.612-2.985 12.756-.669.468-3.981-.565-4.738-.671-8.498-1.192-17.097-1.698-25.675-1.698-2.508 0-30.473 1.692-30.307 2.406-1.009-4.345-2.07-8.948-3.085-13.393-42.249-184.878-51.695-289.49-30.707-337.884 2.513-5.786 5.455-10.801 8.835-15.063zM39.982 289.949C19.741 249.092 14.449 208.27 25.08 175.002c5.589-17.488 15.313-32.195 28.122-42.531 9.399-7.583 19.95-12.431 30.963-14.288-.049.2-1.266 5.814-1.275 5.861-7.759 39.282-.214 89.974 22.519 151.189a647.187 647.187 0 0 0 7.195 18.501 7.497 7.497 0 0 0 9.715 4.142c.02-.008.04-.013.059-.021 4.316-1.741 5.433-6.547 3.813-10.542-13.63-33.627-25.237-69.153-29.597-105.462-1.919-15.985-2.384-32.263-.098-48.235l.009-.064c2.677-18.622 8.555-32.252 15.214-42.149C128.813 66 154.983 58.43 173.975 56.56c-13.871 44.498-9.825 119.759 13.49 240.213l.06.309a2227.603 2227.603 0 0 0 7.207 35.735c1.301 6.191 16.951 73.152 16.251 73.385-.25.074-14.281 5.045-20.437 8.697l-.103-.175c-.236-.402-4.836-8.311-5.271-9.065-10.869-18.837-21.284-37.94-31.086-57.355-5.523-10.948-10.73-22.032-15.914-33.142a7.501 7.501 0 0 0-9.93-3.728c-3.647 1.656-5.438 6.168-3.73 9.931 1.632 3.594 11.601 24.568 14.985 31.321 8.46 16.882 17.397 33.524 26.684 49.965a1347 1347 0 0 0 12.601 21.835 44.474 44.474 0 0 0-6.623 9.623C108.878 387.768 64.431 339.3 39.982 289.949zm277.135 186.667C299.083 490.142 278.487 497 255.901 497c-22.336 0-42.741-6.715-60.648-19.96-8.631-6.384-13.249-15.599-12.669-25.283 1.98-33.094 48.719-36.367 73.317-36.367 17.034 0 34.702 1.878 50.458 8.757 11.537 5.037 22.269 14.351 23.008 27.737.523 9.486-3.942 18.501-12.25 24.732z"/></symbol></svg>